<svg width="32" height="32" viewBox="0 0 32 32" fill="none" xmlns="http://www.w3.org/2000/svg">
  <rect width="32" height="32" fill="#EA580C"/>
  <path d="M8 10H14C16.2091 10 18 11.7909 18 14C18 15.3807 17.3284 16.6072 16.2929 17.3536L18.5 22H15L13 18H11V22H8V10ZM11 13V15H14C14.5523 15 15 14.5523 15 14C15 13.4477 14.5523 13 14 13H11Z" fill="white"/>
  <path d="M19 17.5C19 15.567 20.567 14 22.5 14C24.433 14 26 15.567 26 17.5C26 18.3284 25.7072 19.0893 25.2071 19.6893L26 22H23L22.5 20.5C20.567 20.5 19 18.933 19 17.5ZM22.5 17C22.2239 17 22 17.2239 22 17.5C22 17.7761 22.2239 18 22.5 18C22.7761 18 23 17.7761 23 17.5C23 17.2239 22.7761 17 22.5 17Z" fill="white"/>
</svg>
